<svg version="1" xmlns="http://www.w3.org/2000/svg" width="1604" height="1396" viewBox="0 0 1203 1047">
  <path d="M802.5 35.7c-2.2.1-11.2.7-20 1.3-69.2 4.6-164.1 17.4-218.6 29.5-16 3.6-54.8 15-62.5 18.5-13.8 6-14.8 8.4-32.9 75.5-8 29.7-17.1 63.1-20.1 74.2-6.1 22.1-6.2 23.9-1 27.7 5.1 3.8 23.3 2.1 62.6-6 11.8-2.4 21.8-4.4 22.2-4.4.4 0 .5 2.8.2 6.2-.3 3.5-2.3 31-4.4 61.3-10.4 146.5-17.5 241.9-18.3 246.3-.1.8-56-99.4-124.2-222.5S260.1 117.9 258.3 116l-3.1-3.5-10.1-.3-10.1-.4-76.8 43.3C80.9 198.6 65.8 207.6 64 211c-2.9 5.5.3 12.7 24.6 55.2 9.1 15.9 17.5 30.9 18.5 33.4 1.9 4.3 2 5.4.9 24.2-4.2 77-7.1 121.7-13 205.7-8 111.8-13.6 182.2-27.9 348-8.1 93.7-8.7 102.7-7.3 108.2 2.4 9.3 11 14.1 22.7 12.8 13.8-1.5 60.5-16.7 119-38.5 49.3-18.5 48.9-18.3 51.3-28 .6-2.5 6.3-77.9 12.7-167.5 6.3-89.7 11.9-164.8 12.3-166.9.7-3.9.9-3.7 132.1 198.3 72.3 111.3 131.9 202.5 132.6 202.7 2.3.9 134.8-78 154.4-92 12.7-9.1 18.2-14.6 19.9-20.4.8-2.5 1.2-12.6 1.2-28.3.1-46.7 2.5-88 8.9-158.3 3.4-36.2 6.1-66.4 6.1-67.1 0-.9 8.3-1 34.3-.7 26.9.3 37.9.1 51.7-1.2 98.6-9.4 189-48.2 255.5-109.5 44.9-41.3 72.1-90.2 84.4-151.9 11.3-56.4 10.3-118.7-2.5-164.7-10.9-38.7-35.3-76.6-65.8-102.3-18.1-15.1-45.5-31-70.4-40.6-33.3-13-78.6-21.8-130.7-25.6-12.5-.9-76.8-1.2-87-.3zM850 215.5c26.5 4 48.9 15.3 59.8 29.9 10.6 14.3 13.8 26.5 13.5 52.1-.4 54.2-12.9 88.5-43.8 120.4-6 6.2-14.4 14.1-18.5 17.4-29.1 23.5-68 39.6-95.6 39.7-16.8 0-17.4-1.8-13.9-41.6 1.4-15.4 4.5-51.1 7-79.4 3.9-44.8 9.2-101.1 11.1-119.2.4-3.5 1.4-6.8 2.6-8.3 3.4-4.4 13.8-8.6 27.1-11 10-1.8 39-1.8 50.7 0z"/>
</svg>
